<svg width="695" height="695" viewBox="0 0 695 695" fill="none" xmlns="http://www.w3.org/2000/svg">
    <path d="M156.107 528.312H0V693.913H156.107V528.312Z" fill="#E8F3F7" />
    <path d="M203.347 483.255H47.2404L0 528.312H156.107L203.347 483.255Z" fill="#D7E8F7" />
    <path d="M203.347 483.256V694.011H156.107V528.312L203.347 483.256Z" fill="#C3D9ED" />
    <path d="M138.902 547.356H11.9559V631.776H138.902V547.356Z" fill="#C3D9ED" />
    <path d="M323.684 528.312H167.577V693.913H323.684V528.312Z" fill="#E8F3F7" />
    <path d="M371.022 483.255H214.915L167.577 528.312H323.781L371.022 483.255Z" fill="#D7E8F7" />
    <path d="M371.022 483.256V694.011H323.781V528.312L371.022 483.256Z" fill="#C3D9ED" />
    <path d="M306.479 547.356H179.533V631.776H306.479V547.356Z" fill="#C3D9ED" />
    <path d="M325.336 235.198H206.847V470.691H325.336V235.198Z" fill="#C3D9ED" />
    <path d="M321.837 235.198H203.347V470.691H321.837V235.198Z" fill="#E8F3F7" />
    <path d="M314.741 241.382H208.402V464.31H314.741V241.382Z" fill="#C3D9ED" />
    <path d="M316.977 241.382H210.638V464.31H316.977V241.382Z" fill="#D7E8F7" />
    <path d="M171.854 235.198H53.3641V470.691H171.854V235.198Z" fill="#C3D9ED" />
    <path d="M168.452 235.198H49.962V470.691H168.452V235.198Z" fill="#E8F3F7" />
    <path d="M161.259 241.382H54.9194V464.31H161.259V241.382Z" fill="#C3D9ED" />
    <path d="M163.592 241.382H57.2522V464.31H163.592V241.382Z" fill="#D7E8F7" />
    <path d="M694.9 221.259H650.867V694.306H694.9V221.259Z" fill="#D7E8F7" />
    <path d="M640.855 235.198H375.687V607.039H640.855V235.198Z" fill="#D7E8F7" />
    <path d="M482.221 332.085H459.767V374.098H482.221V332.085Z" fill="white" />
    <path d="M482.221 321.091H459.767V332.085H482.221V321.091Z" fill="white" />
    <path d="M482.221 317.36H459.767V320.992H482.221V317.36Z" fill="white" />
    <path d="M478.722 355.055H462.878V371.055H478.722V355.055Z" fill="#C3D9ED" />
    <path
        d="M470.946 329.238C472.395 329.238 473.57 328.051 473.57 326.588C473.57 325.124 472.395 323.937 470.946 323.937C469.496 323.937 468.321 325.124 468.321 326.588C468.321 328.051 469.496 329.238 470.946 329.238Z"
        fill="white" />
    <path d="M456.074 332.085H433.62V374.098H456.074V332.085Z" fill="white" />
    <path d="M456.074 321.091H433.62V332.085H456.074V321.091Z" fill="white" />
    <path d="M456.074 317.36H433.62V320.992H456.074V317.36Z" fill="white" />
    <path d="M452.574 355.055H436.73V371.055H452.574V355.055Z" fill="#C3D9ED" />
    <path
        d="M444.798 329.238C446.248 329.238 447.423 328.051 447.423 326.588C447.423 325.124 446.248 323.937 444.798 323.937C443.349 323.937 442.174 325.124 442.174 326.588C442.174 328.051 443.349 329.238 444.798 329.238Z"
        fill="white" />
    <path d="M429.537 332.085H407.084V374.098H429.537V332.085Z" fill="white" />
    <path d="M429.537 321.091H407.084V332.085H429.537V321.091Z" fill="white" />
    <path d="M429.537 317.36H407.084V320.992H429.537V317.36Z" fill="white" />
    <path d="M426.135 355.055H410.291V371.055H426.135V355.055Z" fill="#C3D9ED" />
    <path
        d="M418.359 329.238C419.809 329.238 420.984 328.051 420.984 326.588C420.984 325.124 419.809 323.937 418.359 323.937C416.91 323.937 415.735 325.124 415.735 326.588C415.735 328.051 416.91 329.238 418.359 329.238Z"
        fill="white" />
    <path d="M402.612 332.085H380.159V374.098H402.612V332.085Z" fill="white" />
    <path d="M402.612 321.091H380.159V332.085H402.612V321.091Z" fill="white" />
    <path d="M402.612 317.36H380.159V320.992H402.612V317.36Z" fill="white" />
    <path d="M399.113 355.055H383.269V371.055H399.113V355.055Z" fill="#C3D9ED" />
    <path
        d="M391.434 329.238C392.884 329.238 394.059 328.051 394.059 326.588C394.059 325.124 392.884 323.937 391.434 323.937C389.985 323.937 388.81 325.124 388.81 326.588C388.81 328.051 389.985 329.238 391.434 329.238Z"
        fill="white" />
    <path d="M505.064 392.749H466.766V450.273H505.064V392.749Z" fill="white" />
    <path d="M500.301 415.916H471.529V444.972H500.301V415.916Z" fill="#C3D9ED" />
    <path
        d="M485.526 406.394C492.505 406.394 498.162 404.372 498.162 401.879C498.162 399.385 492.505 397.363 485.526 397.363C478.547 397.363 472.89 399.385 472.89 401.879C472.89 404.372 478.547 406.394 485.526 406.394Z"
        fill="#C3D9ED" />
    <path d="M461.809 392.749H423.511V450.273H461.809V392.749Z" fill="white" />
    <path d="M457.046 415.916H428.274V444.972H457.046V415.916Z" fill="#C3D9ED" />
    <path
        d="M442.271 406.394C449.25 406.394 454.907 404.372 454.907 401.879C454.907 399.385 449.25 397.363 442.271 397.363C435.292 397.363 429.635 399.385 429.635 401.879C429.635 404.372 435.292 406.394 442.271 406.394Z"
        fill="#C3D9ED" />
    <path d="M418.748 392.749H380.45V450.273H418.748V392.749Z" fill="white" />
    <path d="M413.985 415.916H385.213V444.972H413.985V415.916Z" fill="#C3D9ED" />
    <path
        d="M399.21 406.394C406.189 406.394 411.847 404.372 411.847 401.879C411.847 399.385 406.189 397.363 399.21 397.363C392.231 397.363 386.574 399.385 386.574 401.879C386.574 404.372 392.231 406.394 399.21 406.394Z"
        fill="#C3D9ED" />
    <path
        d="M407.375 482.078V471.869H398.821V482.372C399.113 492.385 391.434 501.808 391.434 506.913V521.146C391.434 524.288 393.767 526.84 396.78 527.232C396.975 527.232 409.319 527.232 409.514 527.232C412.819 527.232 415.54 524.484 415.54 521.146V507.796C415.54 502.397 408.445 492.286 407.375 482.078Z"
        fill="white" />
    <path d="M415.54 508.974H391.434V521.146H415.54V508.974Z" fill="#C3D9ED" />
    <path d="M408.444 466.47H397.849V471.77H408.444V466.47Z" fill="white" />
    <path
        d="M437.119 482.078V471.869H428.565V482.372C428.857 492.385 421.178 501.808 421.178 506.913V521.146C421.178 524.288 423.511 526.84 426.524 527.232C426.719 527.232 439.063 527.232 439.258 527.232C442.563 527.232 445.284 524.484 445.284 521.146V507.796C445.381 502.397 438.188 492.286 437.119 482.078Z"
        fill="white" />
    <path d="M445.284 508.974H421.178V521.146H445.284V508.974Z" fill="#C3D9ED" />
    <path d="M438.188 466.47H427.593V471.77H438.188V466.47Z" fill="white" />
    <path
        d="M467.835 482.078V471.869H459.281V482.372C459.573 492.385 451.894 501.808 451.894 506.913V521.146C451.894 524.288 454.227 526.84 457.24 527.232C457.435 527.232 469.779 527.232 469.974 527.232C473.278 527.232 476 524.484 476 521.146V507.796C476 502.397 468.904 492.286 467.835 482.078Z"
        fill="white" />
    <path d="M476 508.974H451.894V521.146H476V508.974Z" fill="#C3D9ED" />
    <path d="M468.807 466.47H458.212V471.77H468.807V466.47Z" fill="white" />
    <path
        d="M497.579 482.078V471.869H489.025V482.372C489.317 492.385 481.638 501.808 481.638 506.913V521.146C481.638 524.288 483.971 526.84 486.984 527.232C487.178 527.232 499.523 527.232 499.718 527.232C503.023 527.232 505.744 524.484 505.744 521.146V507.796C505.841 502.397 498.648 492.286 497.579 482.078Z"
        fill="white" />
    <path d="M505.744 508.974H481.638V521.146H505.744V508.974Z" fill="#C3D9ED" />
    <path d="M498.648 466.47H488.053V471.77H498.648V466.47Z" fill="white" />
    <path
        d="M500.106 553.246V548.337H491.553V553.54C487.276 555.405 484.165 559.724 484.165 564.731V597.517C484.165 600.658 486.498 603.21 489.511 603.603C489.706 603.603 502.05 603.603 502.245 603.603C505.55 603.603 508.271 600.855 508.271 597.517V564.731C508.369 559.43 504.869 554.816 500.106 553.246Z"
        fill="#C3D9ED" />
    <path d="M508.271 571.307H484.165V586.13H508.271V571.307Z" fill="white" />
    <path d="M501.176 543.037H490.581V548.337H501.176V543.037Z" fill="white" />
    <path
        d="M469.39 553.246V548.337H460.837V553.54C456.56 555.405 453.449 559.724 453.449 564.731V597.517C453.449 600.658 455.782 603.21 458.795 603.603C458.99 603.603 471.334 603.603 471.529 603.603C474.834 603.603 477.555 600.855 477.555 597.517V564.731C477.555 559.43 474.153 554.816 469.39 553.246Z"
        fill="#C3D9ED" />
    <path d="M477.555 571.307H453.449V586.13H477.555V571.307Z" fill="white" />
    <path d="M470.46 543.037H459.865V548.337H470.46V543.037Z" fill="white" />
    <path
        d="M438.48 553.246V548.337H429.926V553.54C425.649 555.405 422.539 559.724 422.539 564.731V597.517C422.539 600.658 424.872 603.21 427.885 603.603C428.079 603.603 440.424 603.603 440.619 603.603C443.923 603.603 446.645 600.855 446.645 597.517V564.731C446.742 559.43 443.243 554.816 438.48 553.246Z"
        fill="#C3D9ED" />
    <path d="M446.645 571.307H422.539V586.13H446.645V571.307Z" fill="white" />
    <path d="M439.549 543.037H428.954V548.337H439.549V543.037Z" fill="white" />
    <path
        d="M407.764 553.246V548.337H399.21V553.54C394.933 555.405 391.823 559.724 391.823 564.731V597.517C391.823 600.658 394.156 603.21 397.169 603.603C397.363 603.603 409.708 603.603 409.903 603.603C413.207 603.603 415.929 600.855 415.929 597.517V564.731C415.929 559.43 412.527 554.816 407.764 553.246Z"
        fill="#C3D9ED" />
    <path d="M415.929 571.307H391.823V586.13H415.929V571.307Z" fill="white" />
    <path d="M408.833 543.037H398.238V548.337H408.833V543.037Z" fill="white" />
    <path d="M652.52 450.567H366.453V464.899H652.52V450.567Z" fill="white" />
    <path d="M652.52 374.491H366.453V388.823H652.52V374.491Z" fill="white" />
    <path
        d="M363.829 221.259V694.306H652.52V223.419V221.259H363.829ZM640.758 603.799H375.687V541.564H640.855V603.799H640.758ZM640.758 527.232H375.687V464.997H640.855V527.232H640.758ZM640.758 450.567H375.687V312.158H640.855V450.567H640.758ZM640.758 297.826H375.687V235.591H640.855V297.826H640.758Z"
        fill="#E8F3F7" />
    <path d="M622.484 546.669H619.568V558.056H622.484V546.669Z" fill="white" />
    <path d="M632.302 561.786L621.026 554.424L609.848 561.786V603.799H632.302V561.786Z" fill="white" />
    <path d="M628.802 584.756H612.958V600.756H628.802V584.756Z" fill="#C3D9ED" />
    <path d="M592.643 546.669H589.727V558.056H592.643V546.669Z" fill="white" />
    <path d="M602.461 561.786L591.185 554.424L580.007 561.786V603.799H602.461V561.786Z" fill="white" />
    <path d="M598.961 584.756H583.117V600.756H598.961V584.756Z" fill="#C3D9ED" />
    <path d="M563.774 546.669H560.858V558.056H563.774V546.669Z" fill="white" />
    <path d="M573.591 561.786L562.316 554.424L551.04 561.786V603.799H573.591V561.786Z" fill="white" />
    <path d="M569.995 584.756H554.151V600.756H569.995V584.756Z" fill="#C3D9ED" />
    <path d="M534.71 546.669H531.794V558.056H534.71V546.669Z" fill="white" />
    <path d="M544.431 561.786L533.252 554.424L521.977 561.786V603.799H544.431V561.786Z" fill="white" />
    <path d="M540.931 584.756H525.087V600.756H540.931V584.756Z" fill="#C3D9ED" />
    <path d="M540.543 494.25H520.616L522.755 527.232H538.404L540.543 494.25Z" fill="white" />
    <path d="M542.292 491.599H519.45V494.25H542.292V491.599Z" fill="#C3D9ED" />
    <path d="M536.46 519.576H524.31L523.241 502.103H537.529L536.46 519.576Z" fill="#C3D9ED" />
    <path d="M568.051 494.25H548.124L550.263 527.232H565.912L568.051 494.25Z" fill="white" />
    <path d="M569.898 491.599H547.055V494.25H569.898V491.599Z" fill="#C3D9ED" />
    <path d="M563.968 519.576H551.818L550.749 502.103H565.038L563.968 519.576Z" fill="#C3D9ED" />
    <path d="M595.754 494.25H575.73L577.966 527.232H593.615L595.754 494.25Z" fill="white" />
    <path d="M597.503 491.599H574.661V494.25H597.503V491.599Z" fill="#C3D9ED" />
    <path d="M591.671 519.576H579.521L578.451 502.103H592.74L591.671 519.576Z" fill="#C3D9ED" />
    <path d="M622.095 494.25H602.072L604.21 527.232H619.86L622.095 494.25Z" fill="white" />
    <path d="M623.845 491.599H601.003V494.25H623.845V491.599Z" fill="#C3D9ED" />
    <path d="M617.916 519.576H605.765L604.696 502.103H618.985L617.916 519.576Z" fill="#C3D9ED" />
    <path d="M627.15 374.491H598.475L589.63 356.036H635.023L627.15 374.491Z" fill="#C3D9ED" />
    <path d="M636.676 352.208H588.755V356.036H636.676V352.208Z" fill="white" />
    <path
        d="M613.25 370.27C620.229 370.27 625.886 367.897 625.886 364.969C625.886 362.042 620.229 359.669 613.25 359.669C606.271 359.669 600.614 362.042 600.614 364.969C600.614 367.897 606.271 370.27 613.25 370.27Z"
        fill="white" />
    <path d="M576.605 374.491H547.93L539.182 356.036H584.478L576.605 374.491Z" fill="#C3D9ED" />
    <path d="M586.13 352.208H538.21V356.036H586.13V352.208Z" fill="white" />
    <path
        d="M562.705 370.27C569.684 370.27 575.341 367.897 575.341 364.969C575.341 362.042 569.684 359.669 562.705 359.669C555.726 359.669 550.068 362.042 550.068 364.969C550.068 367.897 555.726 370.27 562.705 370.27Z"
        fill="white" />
    <path d="M602.363 352.208H573.591L564.843 333.754H610.237L602.363 352.208Z" fill="#C3D9ED" />
    <path d="M611.889 329.925H563.968V333.754H611.889V329.925Z" fill="white" />
    <path
        d="M588.463 347.987C595.442 347.987 601.1 345.614 601.1 342.686C601.1 339.759 595.442 337.386 588.463 337.386C581.484 337.386 575.827 339.759 575.827 342.686C575.827 345.614 581.484 347.987 588.463 347.987Z"
        fill="white" />
    <path d="M525.573 374.491H496.802L488.053 356.036H533.447L525.573 374.491Z" fill="#C3D9ED" />
    <path d="M535.099 352.208H487.178V356.036H535.099V352.208Z" fill="white" />
    <path
        d="M511.673 370.27C518.652 370.27 524.31 367.897 524.31 364.969C524.31 362.042 518.652 359.669 511.673 359.669C504.695 359.669 499.037 362.042 499.037 364.969C499.037 367.897 504.695 370.27 511.673 370.27Z"
        fill="white" />
    <path d="M551.235 352.208H522.56L513.715 333.754H559.108L551.235 352.208Z" fill="#C3D9ED" />
    <path d="M560.761 329.925H512.84V333.754H560.761V329.925Z" fill="white" />
    <path
        d="M537.335 347.987C544.314 347.987 549.971 345.614 549.971 342.686C549.971 339.759 544.314 337.386 537.335 337.386C530.356 337.386 524.699 339.759 524.699 342.686C524.699 345.614 530.356 347.987 537.335 347.987Z"
        fill="white" />
    <path d="M633.857 392.749H595.559V450.273H633.857V392.749Z" fill="white" />
    <path d="M629.094 415.916H600.322V444.972H629.094V415.916Z" fill="#C3D9ED" />
    <path
        d="M614.319 406.394C621.298 406.394 626.955 404.372 626.955 401.879C626.955 399.385 621.298 397.363 614.319 397.363C607.34 397.363 601.683 399.385 601.683 401.879C601.683 404.372 607.34 406.394 614.319 406.394Z"
        fill="#C3D9ED" />
    <path d="M590.699 392.749H552.401V450.273H590.699V392.749Z" fill="white" />
    <path d="M585.936 415.916H557.164V444.972H585.936V415.916Z" fill="#C3D9ED" />
    <path
        d="M571.161 406.394C578.14 406.394 583.798 404.372 583.798 401.879C583.798 399.385 578.14 397.363 571.161 397.363C564.183 397.363 558.525 399.385 558.525 401.879C558.525 404.372 564.183 406.394 571.161 406.394Z"
        fill="#C3D9ED" />
    <path d="M547.638 392.749H509.341V450.273H547.638V392.749Z" fill="white" />
    <path d="M542.875 415.916H514.104V444.972H542.875V415.916Z" fill="#C3D9ED" />
    <path
        d="M528.101 406.394C535.08 406.394 540.737 404.372 540.737 401.879C540.737 399.385 535.08 397.363 528.101 397.363C521.122 397.363 515.464 399.385 515.464 401.879C515.464 404.372 521.122 406.394 528.101 406.394Z"
        fill="#C3D9ED" />
    <path
        d="M410.291 298.022C423.605 298.022 434.398 287.123 434.398 273.678C434.398 260.233 423.605 249.334 410.291 249.334C396.978 249.334 386.185 260.233 386.185 273.678C386.185 287.123 396.978 298.022 410.291 298.022Z"
        fill="white" />
    <path
        d="M397.752 273.678C397.752 261.015 403.39 250.61 410.486 249.432C410 249.334 409.514 249.334 409.125 249.334C401.349 249.334 394.933 260.23 394.933 273.678C394.933 287.126 401.252 298.022 409.125 298.022C409.611 298.022 410.097 298.022 410.486 297.924C403.39 296.746 397.752 286.341 397.752 273.678Z"
        fill="#C3D9ED" />
    <path
        d="M423.316 273.678C423.316 261.015 417.679 250.61 410.583 249.432C411.069 249.334 411.555 249.334 411.944 249.334C419.72 249.334 426.135 260.23 426.135 273.678C426.135 287.126 419.817 298.022 411.944 298.022C411.458 298.022 410.972 298.022 410.583 297.924C417.679 296.746 423.316 286.341 423.316 273.678Z"
        fill="#C3D9ED" />
    <path
        d="M410.291 298.022C411.311 298.022 412.138 287.123 412.138 273.678C412.138 260.233 411.311 249.334 410.291 249.334C409.271 249.334 408.444 260.233 408.444 273.678C408.444 287.123 409.271 298.022 410.291 298.022Z"
        fill="#C3D9ED" />
    <path
        d="M466.377 298.022C479.691 298.022 490.483 287.123 490.483 273.678C490.483 260.233 479.691 249.334 466.377 249.334C453.064 249.334 442.271 260.233 442.271 273.678C442.271 287.123 453.064 298.022 466.377 298.022Z"
        fill="white" />
    <path
        d="M453.838 273.678C453.838 261.015 459.476 250.61 466.572 249.432C466.086 249.334 465.6 249.334 465.211 249.334C457.435 249.334 451.019 260.23 451.019 273.678C451.019 287.126 457.337 298.022 465.211 298.022C465.697 298.022 466.183 298.022 466.572 297.924C459.476 296.746 453.838 286.341 453.838 273.678Z"
        fill="#C3D9ED" />
    <path
        d="M479.402 273.678C479.402 261.015 473.765 250.61 466.669 249.432C467.155 249.334 467.641 249.334 468.03 249.334C475.806 249.334 482.221 260.23 482.221 273.678C482.221 287.126 475.903 298.022 468.03 298.022C467.544 298.022 467.058 298.022 466.669 297.924C473.765 296.746 479.402 286.341 479.402 273.678Z"
        fill="#C3D9ED" />
    <path
        d="M466.377 298.022C467.397 298.022 468.224 287.123 468.224 273.678C468.224 260.233 467.397 249.334 466.377 249.334C465.357 249.334 464.53 260.233 464.53 273.678C464.53 287.123 465.357 298.022 466.377 298.022Z"
        fill="#C3D9ED" />
    <path
        d="M520.422 298.022C533.735 298.022 544.528 287.123 544.528 273.678C544.528 260.233 533.735 249.334 520.422 249.334C507.108 249.334 496.315 260.233 496.315 273.678C496.315 287.123 507.108 298.022 520.422 298.022Z"
        fill="white" />
    <path
        d="M507.98 273.678C507.98 261.015 513.617 250.61 520.713 249.432C520.227 249.334 519.741 249.334 519.352 249.334C511.576 249.334 505.161 260.23 505.161 273.678C505.161 287.126 511.479 298.022 519.352 298.022C519.838 298.022 520.324 298.022 520.713 297.924C513.617 296.746 507.98 286.341 507.98 273.678Z"
        fill="#C3D9ED" />
    <path
        d="M533.544 273.678C533.544 261.015 527.906 250.61 520.81 249.432C521.296 249.334 521.782 249.334 522.171 249.334C529.947 249.334 536.363 260.23 536.363 273.678C536.363 287.126 530.045 298.022 522.171 298.022C521.685 298.022 521.199 298.022 520.81 297.924C527.906 296.746 533.544 286.341 533.544 273.678Z"
        fill="#C3D9ED" />
    <path
        d="M520.422 298.022C521.442 298.022 522.269 287.123 522.269 273.678C522.269 260.233 521.442 249.334 520.422 249.334C519.402 249.334 518.575 260.233 518.575 273.678C518.575 287.123 519.402 298.022 520.422 298.022Z"
        fill="#C3D9ED" />
    <path
        d="M581.173 298.022C594.487 298.022 605.279 287.123 605.279 273.678C605.279 260.233 594.487 249.334 581.173 249.334C567.86 249.334 557.067 260.233 557.067 273.678C557.067 287.123 567.86 298.022 581.173 298.022Z"
        fill="white" />
    <path
        d="M568.634 273.678C568.634 261.015 574.272 250.61 581.368 249.432C580.882 249.334 580.396 249.334 580.007 249.334C572.231 249.334 565.815 260.23 565.815 273.678C565.815 287.126 572.133 298.022 580.007 298.022C580.493 298.022 580.979 298.022 581.368 297.924C574.272 296.746 568.634 286.341 568.634 273.678Z"
        fill="#C3D9ED" />
    <path
        d="M594.198 273.678C594.198 261.015 588.56 250.61 581.465 249.432C581.951 249.334 582.437 249.334 582.826 249.334C590.602 249.334 597.017 260.23 597.017 273.678C597.017 287.126 590.699 298.022 582.826 298.022C582.34 298.022 581.854 298.022 581.465 297.924C588.56 296.746 594.198 286.341 594.198 273.678Z"
        fill="#C3D9ED" />
    <path
        d="M581.173 298.022C582.193 298.022 583.02 287.123 583.02 273.678C583.02 260.233 582.193 249.334 581.173 249.334C580.153 249.334 579.326 260.233 579.326 273.678C579.326 287.123 580.153 298.022 581.173 298.022Z"
        fill="#C3D9ED" />
    <path d="M300.647 0H291.607V81.7696H300.647V0Z" fill="#D7E8F7" />
    <path d="M442.465 81.6715V0H433.426V81.6715" fill="#D7E8F7" />
    <path d="M536.168 81.6714H269.153L226.19 132.127H583.895L536.168 81.6714Z" fill="#C3D9ED" />
    <path d="M453.741 81.6714H186.726L143.762 132.127H501.467L453.741 81.6714Z" fill="#E8F3F7" />
    <path d="M436.644 592.323H477.664V546.579H436.644V592.323Z" fill="#191919" />
    <path d="M431.284 546.873H464.333V509.964H431.284V546.873Z" fill="#DF8BB9" />
    <path d="M436.73 542.153H381.617V589.271H436.73V542.153Z" fill="#383838" />
    <path d="M431.19 504.361H386.671V542.349H431.19V504.361Z" fill="#F2BED9" />
    <path d="M378.895 388.823H356.538V589.664H378.895V388.823Z" fill="#3B5BA3" />
    <path d="M378.775 589.667H388.301V388.826H378.775V589.667Z" fill="#304E9C" />
    <path d="M343.902 494.151H286.067V591.922H343.902V494.151Z" fill="#FFEA92" />
    <path d="M343.918 591.828H363.844V494.058H343.918V591.828Z" fill="#FCDA4F" />
    <path
        d="M156.301 458.224L168.549 515.355L106.534 606.057L133.653 632.659L212.776 520.557L190.322 418.959L156.301 458.224Z"
        fill="#293E68" />
    <path
        d="M151.15 631.972L107.311 604.192L100.216 615.579L143.957 643.359C147.067 645.322 151.15 644.341 153.191 641.199C155.135 638.156 154.26 634.034 151.15 631.972Z"
        fill="black" />
    <path
        d="M93.0227 418.959L103.521 511.625L59.4879 680.857L97.008 680.465L144.54 512.214L137.833 458.224H156.204L190.225 418.959H93.0227Z"
        fill="#304E9C" />
    <path
        d="M110.325 680.465L58.5158 680.268L58.4186 693.717L110.13 694.011C113.824 694.011 116.837 691.066 116.837 687.336C116.837 683.606 113.921 680.563 110.325 680.465Z"
        fill="black" />
    <path
        d="M381.131 482.568L346.721 424.358C345.36 422.1 342.541 421.315 340.306 422.689C338.07 424.063 337.292 426.91 338.653 429.168L373.063 487.378C373.938 488.851 375.493 489.734 377.145 489.734C377.923 489.734 378.798 489.538 379.575 489.047C381.811 487.771 382.491 484.826 381.131 482.568Z"
        fill="#B5B5B5" />
    <path
        d="M454.713 662.992H448.492L447.714 664.66C442.563 667.213 439.063 672.612 439.063 678.796C439.063 684.98 442.563 690.281 447.714 692.931L449.367 694.6H454.713C463.364 694.6 470.362 687.532 470.362 678.796C470.362 670.059 463.364 662.992 454.713 662.992Z"
        fill="#383838" />
    <path
        d="M449.367 694.6C458.01 694.6 465.016 687.524 465.016 678.796C465.016 670.067 458.01 662.992 449.367 662.992C440.724 662.992 433.717 670.067 433.717 678.796C433.717 687.524 440.724 694.6 449.367 694.6Z"
        fill="black" />
    <path
        d="M449.367 688.71C454.789 688.71 459.184 684.271 459.184 678.796C459.184 673.32 454.789 668.881 449.367 668.881C443.945 668.881 439.549 673.32 439.549 678.796C439.549 684.271 443.945 688.71 449.367 688.71Z"
        fill="#383838" />
    <path
        d="M379.867 662.992H373.646L372.868 664.66C367.717 667.213 364.217 672.612 364.217 678.796C364.217 684.98 367.717 690.281 372.868 692.931L374.521 694.6H379.867C388.518 694.6 395.517 687.532 395.517 678.796C395.517 670.059 388.518 662.992 379.867 662.992Z"
        fill="#383838" />
    <path
        d="M374.521 694.6C383.164 694.6 390.17 687.524 390.17 678.796C390.17 670.067 383.164 662.992 374.521 662.992C365.878 662.992 358.871 670.067 358.871 678.796C358.871 687.524 365.878 694.6 374.521 694.6Z"
        fill="black" />
    <path
        d="M374.521 688.71C379.943 688.71 384.338 684.271 384.338 678.796C384.338 673.32 379.943 668.881 374.521 668.881C369.099 668.881 364.703 673.32 364.703 678.796C364.703 684.271 369.099 688.71 374.521 688.71Z"
        fill="#383838" />
    <path
        d="M340.792 432.113H219.191C216.081 432.113 213.651 429.56 213.651 426.517C213.651 423.474 216.178 420.922 219.191 420.922H340.792C343.902 420.922 346.332 423.474 346.332 426.517C346.332 429.56 343.902 432.113 340.792 432.113Z"
        fill="#383838" />
    <path
        d="M451.116 659.163H391.337C385.213 659.163 380.256 657.102 376.465 652.979C368.689 644.537 369.272 630.5 369.369 628.831V592.511H376.562V629.125C376.562 629.224 375.784 641.494 381.714 647.874C384.047 650.427 387.254 651.703 391.337 651.703H451.116V659.163Z"
        fill="#B5B5B5" />
    <path
        d="M383.658 659.163H328.836C322.712 659.163 317.755 657.102 313.964 652.979C306.188 644.537 306.771 630.5 306.868 628.831V592.511H314.061V629.125C314.061 629.224 313.283 641.494 319.213 647.874C321.546 650.427 324.753 651.703 328.836 651.703H383.658V659.163Z"
        fill="#8C8C8C" />
    <path
        d="M450.533 659.163H378.798C376.757 659.163 375.201 657.494 375.201 655.531C375.201 653.568 376.854 651.899 378.798 651.899H450.533C452.574 651.899 454.13 653.568 454.13 655.531C454.13 657.494 452.477 659.163 450.533 659.163Z"
        fill="#D1D1D1" />
    <path
        d="M391.726 662.992H385.505L384.727 664.66C379.575 667.213 376.076 672.612 376.076 678.796C376.076 684.98 379.575 690.281 384.727 692.931L386.38 694.6H391.726C400.377 694.6 407.375 687.532 407.375 678.796C407.375 670.059 400.377 662.992 391.726 662.992Z"
        fill="#383838" />
    <path
        d="M386.38 694.6C395.023 694.6 402.029 687.524 402.029 678.796C402.029 670.067 395.023 662.992 386.38 662.992C377.737 662.992 370.73 670.067 370.73 678.796C370.73 687.524 377.737 694.6 386.38 694.6Z"
        fill="black" />
    <path
        d="M386.38 688.71C391.802 688.71 396.197 684.271 396.197 678.796C396.197 673.32 391.802 668.881 386.38 668.881C380.957 668.881 376.562 673.32 376.562 678.796C376.562 684.271 380.957 688.71 386.38 688.71Z"
        fill="#383838" />
    <path
        d="M316.88 662.992H310.659L309.881 664.66C304.73 667.213 301.23 672.612 301.23 678.796C301.23 684.98 304.73 690.281 309.881 692.931L311.534 694.6H316.88C325.531 694.6 332.529 687.532 332.529 678.796C332.529 670.059 325.531 662.992 316.88 662.992Z"
        fill="#383838" />
    <path
        d="M311.534 694.6C320.177 694.6 327.183 687.524 327.183 678.796C327.183 670.067 320.177 662.992 311.534 662.992C302.891 662.992 295.884 670.067 295.884 678.796C295.884 687.524 302.891 694.6 311.534 694.6Z"
        fill="black" />
    <path
        d="M311.534 688.71C316.956 688.71 321.351 684.271 321.351 678.796C321.351 673.32 316.956 668.881 311.534 668.881C306.112 668.881 301.716 673.32 301.716 678.796C301.716 684.271 306.112 688.71 311.534 688.71Z"
        fill="#383838" />
    <path
        d="M256.323 482.568L221.913 424.358C220.552 422.1 217.733 421.315 215.498 422.689C213.262 424.063 212.484 426.91 213.845 429.168L248.255 487.378C249.13 488.851 250.685 489.734 252.337 489.734C253.115 489.734 253.99 489.538 254.767 489.047C256.906 487.771 257.586 484.826 256.323 482.568Z"
        fill="#B5B5B5" />
    <path
        d="M247.088 481.39L262.446 596.339H381.422L424.288 481.39H247.088ZM260.405 526.349H285.289L287.525 552.558H263.807L260.405 526.349ZM292.579 526.349H322.129V552.558H294.912L292.579 526.349ZM322.129 519.085H291.996L289.372 488.654H322.129V519.085ZM329.322 488.654H370.438L363.829 519.085H329.322V488.654ZM322.129 559.921V588.977H298.023L295.495 559.921H322.129ZM329.322 559.921H354.886L348.568 588.977H329.322V559.921ZM329.322 552.558V526.349H362.273L356.538 552.558H329.322ZM369.661 526.349H399.793L389.976 552.558H363.926L369.661 526.349ZM371.216 519.085L377.826 488.654H413.791L402.418 519.085H371.216ZM282.081 488.654L284.706 519.085H259.433L255.351 488.654H282.081ZM264.974 559.921H288.302L290.83 588.977H268.862L264.974 559.921ZM376.465 588.977H356.052L362.371 559.921H387.254L376.465 588.977Z"
        fill="#8C8C8C" />
    <path
        d="M416.415 481.39L373.743 596.339H471.237L524.893 481.39H416.415ZM426.621 552.558L436.828 526.349H464.627L454.616 552.558H426.621ZM451.797 559.921L440.716 588.977H412.43L423.802 559.921H451.797ZM419.428 552.558H397.752L407.472 526.349H429.635L419.428 552.558ZM439.646 519.085L451.505 488.654H479.013L467.349 519.085H439.646ZM471.918 526.349H495.246L483.485 552.558H461.906L471.918 526.349ZM474.639 519.085L486.304 488.654H512.062L498.454 519.085H474.639ZM421.372 488.654H444.312L432.453 519.085H410.097L421.372 488.654ZM395.031 559.921H416.609L405.237 588.977H384.241L395.031 559.921ZM467.155 588.977H447.909L459.087 559.921H480.18L467.155 588.977Z"
        fill="#B5B5B5" />
    <path
        d="M290.732 401.78C287.719 401.682 285.095 404.136 284.997 407.179C284.9 410.222 287.233 412.873 290.246 413.069V413.167C301.425 413.658 308.909 422.395 309.784 433.389L324.948 433.978C325.92 412.48 309.395 402.369 290.635 401.584L290.732 401.78Z"
        fill="#C15291" />
    <path
        d="M149.692 400.308C149.497 406.198 153.969 411.204 159.801 411.4L290.246 413.167H290.344C293.454 413.265 296.079 410.909 296.176 407.768C296.273 404.627 293.94 401.977 290.83 401.878H290.732V401.78C290.732 401.78 161.259 390.197 160.676 390.197C154.843 389.804 149.983 394.418 149.692 400.308Z"
        fill="#C15291" />
    <path
        d="M156.204 298.022L143.471 301.556V322.268C137.541 322.857 132.973 327.864 132.973 333.95C132.973 340.429 138.222 345.729 144.637 345.729C151.053 345.729 156.301 340.429 156.301 333.95C156.301 333.852 156.301 333.852 156.301 333.754V298.022H156.204Z"
        fill="#000851" />
    <path
        d="M112.269 339.741H112.366H151.247C166.799 339.741 180.116 348.969 186.337 362.221L204.417 398.639H190.031V418.861H92.9255V359.276C93.0227 348.478 101.674 339.741 112.269 339.741Z"
        fill="#FFE36C" />
    <path
        d="M164.855 322.367L156.01 291.347C153.871 285.359 148.234 281.04 141.527 281.04C133.07 281.04 126.169 288.01 126.169 296.55V322.367H134.528V342.097C134.528 342.097 143.276 350.539 143.276 350.343V322.367H164.855Z"
        fill="#D85398" />
    <path
        d="M160.773 310.391L157.662 299.986C157.468 299.495 156.982 299.2 156.399 299.298C155.913 299.495 155.621 299.986 155.718 300.574L158.829 310.98C158.926 311.372 159.315 311.667 159.801 311.667C159.898 311.667 159.995 311.667 160.092 311.667C160.578 311.471 160.87 310.882 160.773 310.391Z"
        fill="#000851" />
    <path
        d="M155.815 291.053C153.58 285.163 148.039 281.04 141.527 281.04C133.07 281.04 126.169 288.01 126.169 296.55V308.231C133.459 306.464 138.902 299.887 138.902 291.936C138.902 291.74 138.902 291.544 138.902 291.347C141.138 293.31 144.054 294.488 147.164 294.488C150.567 294.488 153.58 293.212 155.815 291.053Z"
        fill="#000851" />
    <path
        d="M138.902 291.347L126.169 301.458V322.17C120.239 322.759 115.671 327.766 115.671 333.852C115.671 340.33 120.92 345.631 127.335 345.631C133.751 345.631 138.999 340.33 138.999 333.852C138.999 333.754 138.999 333.754 138.999 333.655V291.347H138.902Z"
        fill="#000851" />
    <path
        d="M117.809 351.619C116.254 345.239 110.13 341.214 104.298 342.785C98.466 344.257 94.9667 350.638 96.6192 357.018L107.214 413.265C108.575 418.861 113.921 422.395 119.073 421.118C124.225 419.842 127.238 414.149 125.877 408.554C125.877 408.554 117.907 352.11 117.809 351.619Z"
        fill="#D85398" />
    <path
        d="M150.567 302.145C151.479 302.145 152.219 301.398 152.219 300.476C152.219 299.555 151.479 298.808 150.567 298.808C149.654 298.808 148.914 299.555 148.914 300.476C148.914 301.398 149.654 302.145 150.567 302.145Z"
        fill="#000851" />
    <path
        d="M247.866 412.186C244.853 412.087 242.228 414.542 242.131 417.585C242.034 420.628 244.367 423.278 247.38 423.474V423.572C258.558 424.063 266.043 432.8 266.918 443.794L282.081 444.383C283.053 422.885 266.529 412.775 247.769 411.989L247.866 412.186Z"
        fill="#D85398" />
    <path
        d="M106.923 410.615C106.728 416.505 111.2 421.511 117.032 421.707L247.477 423.474H247.575C250.685 423.572 253.309 421.217 253.407 418.075C253.504 414.934 251.171 412.284 248.061 412.186H247.963V412.087C247.963 412.087 118.49 400.504 117.906 400.504C112.074 400.21 107.117 404.725 106.923 410.615Z"
        fill="#D85398" />
</svg>